#!OML:ASF X:\für Bonn\!DataBase\2005_08_10_Bjorn_Final\c3d\bjorn.ASF
:FULLY-SPECIFIED
:DEGREES
452
root 0.383907 1.95443 17.8327 -434.844 -173.514 -708.03
lowerback 33.9234 7.59495 4.61458
upperback 27.6692 0.385767 2.56158
thorax 14.1805 -4.49621 -0.942444
lowerneck 18.0475 -3.54175 -6.69004
upperneck 12.1015 -7.85195 -0.454808
head 1.15322 -4.94625 1.27825
rclavicle -2.64384e-014 1.27222e-014
rhumerus -164.94 -188.718 121.594
rradius 40.9136
rwrist -22.3765
rhand -2.84238 -2.29976
rfingers 7.12502
rthumb 22.8652 -30.9642
lclavicle -2.64384e-014 1.27222e-014
lhumerus 28.9764 -24.6658 51.0731
lradius 36.7523
lwrist 3.54779
lhand 16.6682 -350.709
lfingers 7.12502
lthumb 41.4195 34.0723
rfemur -77.8494 -31.9684 8.75385
rtibia 126.37
rfoot 28.9846 15.9045
rtoes -5.6627
lfemur 161.643 179.164 164.232
ltibia 10.8743
lfoot 9.34986 16.7193
ltoes 3.82015
453
root 0.383285 1.95137 17.8449 -435.147 -173.558 -707.889
lowerback 33.8133 7.63284 4.58589
upperback 27.6354 0.493832 2.54207
thorax 14.1752 -4.41894 -0.962876
lowerneck 18.0285 -3.56128 -6.48493
upperneck 12.2299 -7.85338 -0.41853
head 1.19237 -4.94778 1.25114
rclavicle -3.80673e-014 5.08889e-014
rhumerus -164.696 -188.142 121.141
rradius 40.4911
rwrist -21.2495
rhand -2.20376 -1.67569
rfingers 7.12502
rthumb 23.478 -30.2631
lclavicle -3.80673e-014 5.08889e-014
lhumerus 29.1186 -24.4073 52.1429
lradius 36.5645
lwrist 2.54731
lhand 14.0203 -351.347
lfingers 7.12502
lthumb 38.9287 34.1938
rfemur -77.1597 -30.9493 8.92971
rtibia 125.446
rfoot 28.7873 15.3623
rtoes -5.81786
lfemur 161.96 179.147 164.255
ltibia 10.8163
lfoot 9.29199 16.3575
ltoes 3.97877
454
root 0.382562 1.94826 17.8582 -435.435 -173.599 -707.75
lowerback 33.6805 7.66742 4.53091
upperback 27.5919 0.59981 2.51739
thorax 14.1635 -4.34205 -0.973388
lowerneck 18.0422 -3.5636 -6.28217
upperneck 12.3602 -7.84088 -0.365536
head 1.22744 -4.94444 1.23055
rclavicle 7.95139e-016 8.90555e-014
rhumerus -164.47 -187.621 120.686
rradius 40.0819
rwrist -20.2279
rhand -1.61912 -1.07705
rfingers 7.12502
rthumb 24.0387 -29.5916
lclavicle 7.95139e-016 8.90555e-014
lhumerus 29.1864 -24.1939 53.2117
lradius 36.4114
lwrist 1.64804
lhand 11.4324 -351.987
lfingers 7.12502
lthumb 36.4836 34.209
rfemur -76.4831 -29.9342 9.10679
rtibia 124.488
rfoot 28.5809 14.8448
rtoes -6.03365
lfemur 162.269 179.111 164.268
ltibia 10.7424
lfoot 9.28184 15.9848
ltoes 4.3743
455
root 0.381618 1.9451 17.8713 -435.753 -173.629 -707.603
lowerback 33.5622 7.70524 4.46286
upperback 27.5534 0.701791 2.51469
thorax 14.152 -4.27506 -0.952583
lowerneck 18.0132 -3.5727 -6.08331
upperneck 12.5284 -7.83602 -0.361415
head 1.28001 -4.94664 1.19251
rclavicle -1.38155e-014 -1.90833e-014
rhumerus -164.26 -187.11 120.275
rradius 39.6744
rwrist -19.2345
rhand -1.10098 -0.434105
rfingers 7.12502
rthumb 24.5354 -28.8822
lclavicle -1.38155e-014 -1.90833e-014
lhumerus 29.2331 -24.0628 54.2492
lradius 36.2999
lwrist 0.870714
lhand 8.91063 -352.729
lfingers 7.12502
lthumb 34.0924 34.0347
rfemur -75.7349 -28.9896 9.24786
rtibia 123.479
rfoot 28.3973 14.3027
rtoes -6.18554
lfemur 162.61 179.026 164.259
ltibia 10.658
lfoot 9.35752 15.5381
ltoes 4.5071
456
root 0.380357 1.94217 17.8857 -436.034 -173.647 -707.462
lowerback 33.3908 7.74678 4.38753
upperback 27.5196 0.812392 2.5025
thorax 14.1666 -4.19914 -0.940812
lowerneck 17.9621 -3.58106 -5.87757
upperneck 12.695 -7.82596 -0.332755
head 1.33606 -4.9446 1.16046
rclavicle 3.22528e-014 9.22361e-014
rhumerus -164.065 -186.594 119.865
rradius 39.2823
rwrist -18.3217
rhand -0.629998 0.148716
rfingers 7.12502
rthumb 24.9868 -28.2374
lclavicle 3.22528e-014 9.22361e-014
lhumerus 29.29 -24.0326 55.2003
lradius 36.2459
lwrist 0.239188
lhand 6.56271 -353.7
lfingers 7.12502
lthumb 31.8594 33.5336
rfemur -75.0237 -28.0579 9.37961
rtibia 122.432
rfoot 28.2238 13.7058
rtoes -6.24314
lfemur 162.923 179.035 164.254
ltibia 10.5609
lfoot 9.37255 15.1908
ltoes 4.95208
457
root 0.379717 1.93868 17.9004 -436.299 -173.656 -707.324
lowerback 33.2053 7.78639 4.26776
upperback 27.4824 0.912195 2.48622
thorax 14.1782 -4.13426 -0.90771
lowerneck 17.8948 -3.57339 -5.66873
upperneck 12.8924 -7.79784 -0.341016
head 1.40254 -4.93617 1.11404
rclavicle -1.07344e-014 1.59028e-014
rhumerus -163.845 -186.092 119.423
rradius 38.8646
rwrist -17.385
rhand -0.23105 0.714405
rfingers 7.12502
rthumb 25.369 -27.618
lclavicle -1.07344e-014 1.59028e-014
lhumerus 29.3134 -24.0298 56.0845
lradius 36.2134
lwrist -0.2903
lhand 4.41094 -354.755
lfingers 7.12502
lthumb 29.808 32.8665
rfemur -74.3011 -27.1615 9.50541
rtibia 121.325
rfoot 28.0729 13.1167
rtoes -6.23073
lfemur 163.208 179.009 164.232
ltibia 10.483
lfoot 9.38702 14.8588
ltoes 5.41647
458
root 0.377993 1.93593 17.9138 -436.577 -173.646 -707.199
lowerback 33.017 7.83379 4.14858
upperback 27.4467 1.02491 2.46549
thorax 14.1935 -4.06129 -0.881747
lowerneck 17.8935 -3.57735 -5.4631
upperneck 13.04 -7.7887 -0.324548
head 1.44435 -4.935 1.08055
rclavicle -2.17669e-014 -2.54444e-014
rhumerus -163.68 -185.535 118.964
rradius 38.4749
rwrist -16.5282
rhand 0.128552 1.1655
rfingers 7.12502
rthumb 25.7135 -27.1175
lclavicle -2.17669e-014 -2.54444e-014
lhumerus 29.3237 -24.1475 56.8858
lradius 36.2569
lwrist -0.692763
lhand 2.43917 -355.68
lfingers 7.12502
lthumb 27.9245 32.2632
rfemur -73.5237 -26.3161 9.59436
rtibia 120.157
rfoot 27.9217 12.6033
rtoes -6.27721
lfemur 163.512 179.026 164.193
ltibia 10.4004
lfoot 9.4495 14.5223
ltoes 5.80141
459
root 0.37649 1.93281 17.9275 -436.819 -173.618 -707.069
lowerback 32.7675 7.8828 3.9857
upperback 27.4144 1.13581 2.44658
thorax 14.2334 -3.99212 -0.830872
lowerneck 17.8899 -3.57399 -5.28343
upperneck 13.1782 -7.77483 -0.284105
head 1.48536 -4.93191 1.05923
rclavicle 7.05064e-016 -7.63333e-014
rhumerus -163.495 -185.005 118.535
rradius 38.0984
rwrist -15.7303
rhand 0.402675 1.51927
rfingers 7.12502
rthumb 25.976 -26.7255
lclavicle 7.05064e-016 -7.63333e-014
lhumerus 29.356 -24.3224 57.5878
lradius 36.3019
lwrist -1.03582
lhand 0.668203 -356.537
lfingers 7.12502
lthumb 26.2302 31.6699
rfemur -72.7652 -25.5161 9.66764
rtibia 118.927
rfoot 27.8332 12.017
rtoes -6.07167
lfemur 163.763 179.019 164.126
ltibia 10.344
lfoot 9.53003 14.1475
ltoes 6.06998
460
root 0.375211 1.92896 17.9403 -437.089 -173.593 -706.928
lowerback 32.5501 7.92029 3.82697
upperback 27.3726 1.23428 2.42967
thorax 14.2491 -3.92967 -0.775801
lowerneck 17.925 -3.5533 -5.1644
upperneck 13.2852 -7.75232 -0.20978
head 1.51368 -4.9264 1.06088
rclavicle -4.22417e-016 5.08889e-014
rhumerus -163.36 -184.485 118.09
rradius 37.7467
rwrist -14.9336
rhand 0.639518 1.90501
rfingers 7.12502
rthumb 26.2028 -26.3063
lclavicle -4.22417e-016 5.08889e-014
lhumerus 29.3427 -24.58 58.2459
lradius 36.4089
lwrist -1.15325
lhand -0.934892 -357.238
lfingers 7.12502
lthumb 24.6946 31.1885
rfemur -71.937 -24.7494 9.71611
rtibia 117.638
rfoot 27.778 11.353
rtoes -5.7484
lfemur 164.019 179.022 164.07
ltibia 10.3221
lfoot 9.60285 13.7887
ltoes 6.46404
461
root 0.373712 1.92542 17.9517 -437.341 -173.581 -706.788
lowerback 32.3032 7.96028 3.65852
upperback 27.3273 1.33905 2.41684
thorax 14.2712 -3.86329 -0.711425
lowerneck 18.0059 -3.54073 -5.04791
upperneck 13.3483 -7.74091 -0.135324
head 1.521 -4.9247 1.0661
rclavicle -1.2921e-014 -5.40694e-014
rhumerus -163.213 -183.917 117.617
rradius 37.3764
rwrist -14.1291
rhand 0.852409 2.27039
rfingers 7.12502
rthumb 26.4066 -25.9105
lclavicle -1.2921e-014 -5.40694e-014
lhumerus 29.3166 -24.8171 58.9001
lradius 36.4751
lwrist -1.44816
lhand -2.35344 -358.098
lfingers 7.12502
lthumb 23.3344 30.5079
rfemur -71.1012 -24.0145 9.77799
rtibia 116.297
rfoot 27.7083 10.6977
rtoes -5.44904
lfemur 164.238 179.006 164.02
ltibia 10.3332
lfoot 9.65745 13.436
ltoes 6.69469
